<svg width="54" height="54" viewBox="0 0 54 54" fill="none" xmlns="http://www.w3.org/2000/svg">
<path d="M9.98525 11.8125H37.4455C38.1598 10.9687 38.5526 9.91058 38.5325 8.8213C38.5101 7.61347 38.0032 6.49255 37.1054 5.70523C36.6165 5.2766 35.8485 4.75991 34.9654 4.75991C34.9103 4.75991 34.8552 4.75801 34.8005 4.75991C32.5089 4.84059 30.3514 3.94632 28.8793 2.30955C27.6789 0.974952 25.9619 0.208933 24.1684 0.208933C22.364 0.208933 20.64 0.982019 19.4386 2.33023C17.7963 4.17329 15.3135 5.09277 12.7969 4.7886C12.612 4.76624 12.4228 4.75548 12.2349 4.75548C11.6731 4.75548 11.0848 4.99057 10.4863 5.45168C9.59196 6.14071 9.02348 7.14762 8.88543 8.28214C8.74357 9.44915 9.06873 10.6271 9.80121 11.5475L9.98525 11.8125Z" fill="#23CEC2"/>
<path d="M20.2649 16.2358C20.3035 16.2358 20.3415 16.2422 20.3791 16.2422H40.7329C41.4068 16.2422 41.9552 15.7032 41.9552 15.0292C41.9552 14.3552 41.4068 13.8164 40.7329 13.8164H9.48059C9.48017 13.8164 9.47974 13.8164 9.47932 13.8164C9.47901 13.8164 9.47869 13.8164 9.47837 13.8164H6.63736C5.96331 13.8164 5.41498 14.3554 5.41498 15.0292C5.41498 15.7032 5.96331 16.2422 6.63736 16.2422H20.1505C20.1882 16.2422 20.2263 16.2358 20.2649 16.2358Z" fill="#23CEC2"/>
<path d="M36.4922 39.1289H39.3398V24.1607C39.3398 23.7812 39.1592 23.4239 38.8903 23.1545C38.7913 23.0555 38.6616 22.9731 38.5414 22.9083C38.5361 22.9054 38.5233 22.903 38.5179 22.8999C38.3174 22.7952 38.12 22.7391 37.8868 22.739C37.1032 22.7391 36.4922 23.3768 36.4922 24.1607V36.4987C36.4922 36.5542 36.5072 36.6107 36.5072 36.6687C36.5072 36.7267 36.4922 36.7833 36.4922 36.8388V39.1289Z" fill="#23CEC2"/>
<path d="M40.3255 44.1914C39.7452 44.1914 39.3398 43.7269 39.3398 43.1466V41.1328H36.4922V43.1463C36.4922 43.7266 35.9605 44.1914 35.3802 44.1914H35.2236C33.6219 44.1914 32.3789 45.5002 32.3789 47.1019V47.7725C32.3789 47.8511 32.4087 47.9326 32.4087 48.017C32.4087 48.1012 32.3789 48.1829 32.3789 48.2614V49.043H43.9805V48.2486C43.9805 48.1739 43.954 48.0966 43.954 48.0169C43.954 47.9371 43.9805 47.8598 43.9805 47.7851V47.1028C43.9805 47.1014 44.0095 47.0971 44.0096 47.0956C44.0075 45.4955 42.7339 44.1914 41.1333 44.1914H40.3255Z" fill="#23CEC2"/>
<path d="M19.1953 21.8876V18.3516H8.93626L10.5881 32.039C15.4936 31.2255 19.1953 26.9577 19.1953 21.8876Z" fill="#23CEC2"/>
<path d="M47.7982 49.043H46.0898V50.0735C46.0898 50.6538 45.6692 51.1523 45.0889 51.1523H31.2679C30.6876 51.1523 30.2695 50.6538 30.2695 50.0735V49.043H29.1216L28.3348 53.7891H48.585L47.7982 49.043Z" fill="#23CEC2"/>
<path d="M34.3828 42.1755V40.1796C34.3828 40.1768 34.3828 40.1742 34.3828 40.1715V37.7578H11.2856L12.9874 51.7363C13.1312 52.9195 14.1428 53.7891 15.3409 53.7891H26.2043L27.1947 47.8247C27.2791 47.3179 27.7174 46.9336 28.2311 46.9336H30.2202C30.2845 44.6133 32.0625 42.5905 34.3828 42.1755Z" fill="#23CEC2"/>
<path d="M34.3828 24.1606C34.3828 22.2179 35.937 20.6359 37.8795 20.6358C37.9748 20.6358 38.0523 20.6218 38.1462 20.6293L38.4106 18.3516H21.3047V21.8876C21.3047 28.0218 16.7964 33.2198 10.8458 34.1615L11.0301 35.6484H34.3828V24.1606Z" fill="#23CEC2"/>
</svg>
