<svg width="27" height="22" viewBox="0 0 27 22" fill="none" xmlns="http://www.w3.org/2000/svg">
<path d="M20.25 16.4C18.3075 17.5845 15.9422 18.2408 13.5 18.2727C5.54545 18.2727 1 11 1 11C2.41351 8.89263 4.37402 7.05146 6.75 5.6M11.1136 3.94545C11.8958 3.79898 12.6967 3.72576 13.5 3.72727C21.4545 3.72727 26 11 26 11C25.3102 12.0324 24.4876 13.0043 23.5455 13.9M15.9091 12.9273C15.597 13.1952 15.2206 13.4101 14.8024 13.5592C14.3843 13.7083 13.9328 13.7884 13.4751 13.7949C13.0174 13.8013 12.5627 13.734 12.1382 13.5968C11.7137 13.4596 11.3281 13.2555 11.0044 12.9965C10.6806 12.7375 10.4254 12.429 10.254 12.0894C10.0825 11.7499 9.99833 11.3861 10.0064 11.0199C10.0145 10.6537 10.1147 10.2926 10.301 9.95804C10.4873 9.6235 10.756 9.32241 11.0909 9.07273M1 1L26 21" stroke="#BBBEC0" stroke-width="2" stroke-linecap="round" stroke-linejoin="round"/>
</svg>
