<svg width="71" height="71" viewBox="0 0 71 71" fill="none" xmlns="http://www.w3.org/2000/svg">
<path d="M28.2948 25.8277L29.8167 31.3364C31.2515 36.5298 31.9689 39.1266 34.0782 40.3079C36.1872 41.4888 38.8648 40.793 44.2194 39.4014L49.8991 37.9255C55.254 36.5339 57.9313 35.8381 59.1492 33.7922C60.3669 31.7465 59.6495 29.1498 58.2147 23.9562L56.6929 18.4476C55.2581 13.254 54.5407 10.6572 52.4314 9.47611C50.3221 8.29499 47.6445 8.99082 42.29 10.3824L36.6103 11.8585C31.2554 13.2501 28.5781 13.9459 27.3603 15.9916C26.1425 18.0374 26.86 20.6342 28.2948 25.8277Z" fill="#23CEC2"/>
<path d="M6.73758 15.5222C7.06518 14.3414 8.28798 13.6498 9.46874 13.9774L14.5089 15.3758C17.2213 16.1283 19.3679 18.2194 20.1168 20.9299L26.4802 43.9635L26.9485 45.5805C28.8215 46.2796 30.4303 47.5895 31.4512 49.3293L32.3683 49.0462L58.609 42.227C59.795 41.9187 61.0065 42.6302 61.3147 43.8162C61.623 45.0022 60.9112 46.2133 59.7252 46.5216L33.5815 53.316L32.6091 53.6162C32.5893 57.376 29.9951 60.81 26.0699 61.83C21.3648 63.0527 16.5285 60.3447 15.2677 55.7811C14.007 51.2176 16.7992 46.5269 21.5044 45.3042C21.7375 45.2436 21.971 45.1927 22.2044 45.151L15.8395 22.1116C15.5192 20.9522 14.5815 20.0011 13.3225 19.6517L8.28239 18.2534C7.1016 17.9258 6.40997 16.703 6.73758 15.5222Z" fill="#23CEC2"/>
</svg>
