<svg width="27" height="16" viewBox="0 0 27 16" fill="none" xmlns="http://www.w3.org/2000/svg">
<path d="M13.5 15C15.9422 14.9693 18.3075 14.3376 20.25 13.1975C21.8604 12.2575 22.5256 11.7303 23.5455 10.7913C24.4876 9.92915 25.3102 8.99367 26 8.00001C26 8.00001 21.4545 1.00002 13.5 1.00002C12.6967 0.998568 11.8958 1.06904 11.1136 1.21002C9.26548 1.61691 8.27223 1.91944 6.75 2.80252C4.37402 4.19955 2.41351 5.97167 1 8.00001C1 8.00001 5.54545 15 13.5 15Z" stroke="#BBBEC0" stroke-width="2" stroke-linecap="round" stroke-linejoin="round"/>
<path d="M16.7273 7.67499C16.7273 8.99829 15.3891 10.35 13.3636 10.35C11.3381 10.35 10 8.99829 10 7.67499C10 6.3517 11.3381 5 13.3636 5C15.3891 5 16.7273 6.3517 16.7273 7.67499Z" stroke="#BBBEC0" stroke-width="2"/>
</svg>
