<svg width="25" height="55" viewBox="0 0 25 55" fill="none" xmlns="http://www.w3.org/2000/svg">
<path fill-rule="evenodd" clip-rule="evenodd" d="M5.61681 0H19.0614C19.6342 0 20.1579 0.232728 20.5383 0.61315C20.9142 0.989096 21.1514 1.51274 21.1514 2.09008V5.21849C21.1514 5.79136 20.9187 6.315 20.5383 6.69094C20.1623 7.06689 19.6387 7.30409 19.0614 7.30409H18.8063C20.5114 10.2177 21.8496 13.2208 22.8119 16.3089C23.8815 19.7237 24.4991 23.246 24.6737 26.8801C24.6737 26.8936 24.6737 26.9025 24.6737 26.9159V48.8237C24.6737 48.8551 24.6737 48.8864 24.6692 48.9177C24.5931 50.5558 24.1903 51.9253 23.3847 52.9681C22.5478 54.0512 21.3126 54.7494 19.6074 54.9911C19.5716 54.9955 19.5358 55 19.4955 55H5.33038C5.29905 55 5.26772 55 5.23639 54.9955C3.66995 54.9284 2.4884 54.3958 1.62015 53.4783C0.769794 52.5743 0.259582 51.3256 0.0134266 49.7949C0.00895109 49.7547 0.00447555 49.7144 0.00447555 49.6741H0V26.9831C0 26.9473 0 26.9159 0.00447555 26.8846C0.313288 22.9685 0.989096 19.3388 1.96924 16.009C2.90911 12.8224 4.12645 9.91334 5.56758 7.30409C5.01261 7.29067 4.51135 7.05794 4.14436 6.69094C3.76841 6.315 3.53121 5.79136 3.53121 5.21401V2.0856C3.53121 1.51274 3.76394 0.989096 4.14436 0.608674C4.5203 0.232728 5.04394 0 5.61681 0ZM1.56197 30.6933H23.1207V26.9115C22.9506 23.4295 22.3554 20.0505 21.326 16.7699C20.3369 13.6101 18.9495 10.5444 17.1593 7.58158L7.16088 7.65319C5.67052 10.2759 4.41289 13.2163 3.4596 16.4521C2.51078 19.6745 1.85288 23.1968 1.55749 26.9965V30.6933H1.56197ZM23.1207 40.0159H1.56197V49.6159C1.76337 50.8019 2.14379 51.7508 2.75246 52.3997C3.33876 53.0218 4.16673 53.3843 5.29457 53.4291C5.30352 53.4291 5.31695 53.4291 5.3259 53.4291H19.4552C20.6994 53.2411 21.5811 52.7488 22.1584 52.0059C22.7537 51.2316 23.058 50.1619 23.1162 48.8416V48.8148V40.0159H23.1207ZM19.0614 1.56197H5.61681C5.47359 1.56197 5.3438 1.62015 5.24534 1.71861C5.15136 1.8126 5.0887 1.94686 5.0887 2.09008V5.21849C5.0887 5.36171 5.14688 5.4915 5.24534 5.58996C5.33933 5.68395 5.47359 5.7466 5.61681 5.7466H19.0614C19.2046 5.7466 19.3344 5.68842 19.4328 5.58996C19.5268 5.49597 19.5895 5.36171 19.5895 5.21849V2.0856C19.5895 1.94239 19.5313 1.8126 19.4328 1.71413C19.3388 1.62015 19.2046 1.56197 19.0614 1.56197ZM9.7746 32.4969V38.2122H8.4006L8.39613 34.3543L7.85011 38.2122H6.88787L6.31052 34.4393L6.30605 38.2122H4.93205V32.4969H6.96395C7.02213 32.8416 7.08479 33.2488 7.15193 33.7143L7.3757 35.1644L7.73375 32.4969H9.7746ZM12.1153 32.4969V38.2122H10.5399V32.4969H12.1153ZM14.4515 32.4969V37.071H15.4004V38.2122H12.8806V32.4969H14.4515ZM19.67 32.4969L18.7704 35.0793L19.7506 38.2122H18.1304L17.4904 35.7641V38.2122H15.915V32.4969H17.4904V34.7168L18.1976 32.4969H19.67Z" fill="#23CEC2"/>
</svg>
