<svg width="55" height="55" viewBox="0 0 55 55" fill="none" xmlns="http://www.w3.org/2000/svg">
<path fill-rule="evenodd" clip-rule="evenodd" d="M16.4803 49.5707L15.9566 36.3847L21.8872 36.1475C24.4206 36.4966 26.9853 37.7633 29.5634 39.2448L34.1691 39.0613C36.2594 39.106 37.4365 41.1739 35.4626 42.642C33.8961 43.8908 31.7611 43.9087 29.5679 43.7968C28.0595 43.7834 28.0729 45.811 29.644 45.7528C30.19 45.7751 30.7808 45.623 31.2956 45.6006C34.0214 45.4887 36.2459 44.88 37.535 42.6689L38.1616 41.0307L44.88 37.3604C48.2637 36.0938 50.542 39.2851 48.116 41.8811C43.2955 45.6901 38.6271 49.1634 33.5156 51.7684C29.8275 54.2167 26.0409 54.2928 22.1737 52.2205L16.4803 49.5707ZM13.3114 29.4784H54.445C54.7493 29.4784 55 29.7335 55 30.0334V32.4548C55 32.7547 54.7493 33.0098 54.445 33.0098H13.3114C13.007 33.0098 12.7563 32.7592 12.7563 32.4548V30.0334C12.7563 29.729 13.007 29.4784 13.3114 29.4784ZM35.4761 6.31999C46.7375 7.21965 56.2219 16.6862 54.821 27.8312H12.9399C11.5568 16.6146 21.0771 7.1346 32.419 6.30656V4.48934H30.6287C30.3153 4.48934 30.0557 4.22974 30.0557 3.91642V1.86646C30.0557 1.55314 30.3109 1.29354 30.6287 1.29354H37.2172C37.5305 1.29354 37.7901 1.55314 37.7901 1.86646V3.91642C37.7901 4.22974 37.5305 4.48934 37.2172 4.48934H35.4761V6.31999ZM0 35.9326L14.1215 35.1896L14.7481 50.9672L0.626628 51.7057L0 35.9326Z" fill="#23CEC2"/>
</svg>
