<svg width="15" height="26" viewBox="0 0 15 26" fill="none" xmlns="http://www.w3.org/2000/svg">
<path fill-rule="evenodd" clip-rule="evenodd" d="M7.63943 0.532984C7.34507 0.238625 6.86782 0.238626 6.57346 0.532984L6.5727 0.533748L0.532984 6.57346C0.238625 6.86782 0.238625 7.34507 0.532984 7.63943C0.827342 7.93379 1.30459 7.93379 1.59895 7.63943L7.10568 2.1327L12.6132 7.64019C12.9075 7.93455 13.3848 7.93455 13.6791 7.64019C13.9735 7.34584 13.9735 6.86859 13.6791 6.57423L7.66746 0.562541C7.65843 0.5525 7.64909 0.542644 7.63943 0.532984Z" fill="#D9D9D9"/>
<path fill-rule="evenodd" clip-rule="evenodd" d="M6.64377 24.7151C6.93813 25.0094 7.41538 25.0094 7.70974 24.7151L7.71051 24.7143L13.7502 18.6746C14.0446 18.3802 14.0446 17.903 13.7502 17.6086C13.4559 17.3143 12.9786 17.3143 12.6843 17.6086L7.17752 23.1153L1.67003 17.6079C1.37567 17.3135 0.898419 17.3135 0.604061 17.6079C0.309702 17.9022 0.309703 18.3795 0.604062 18.6738L6.61574 24.6855C6.62476 24.6955 6.63411 24.7054 6.64377 24.7151Z" fill="#D9D9D9"/>
</svg>
