<svg width="18" height="19" viewBox="0 0 18 19" fill="none" xmlns="http://www.w3.org/2000/svg">
<path d="M17 18C17 16.6819 17 16.023 16.8278 15.4867C16.44 14.2794 15.4395 13.3344 14.1611 12.9682C13.5933 12.8056 12.8956 12.8056 11.5 12.8056H6.5C5.1044 12.8056 4.4067 12.8056 3.8389 12.9682C2.56045 13.3344 1.56004 14.2794 1.17224 15.4867C1 16.023 1 16.6819 1 18M13.5 5.25C13.5 7.5972 11.4853 9.5 9 9.5C6.5147 9.5 4.5 7.5972 4.5 5.25C4.5 2.90279 6.5147 1 9 1C11.4853 1 13.5 2.90279 13.5 5.25Z" stroke="#23CEC2" stroke-width="2" stroke-linecap="round" stroke-linejoin="round"/>
</svg>
